<svg width="22" height="21" viewBox="0 0 22 21" fill="none" xmlns="http://www.w3.org/2000/svg">
<path fill-rule="evenodd" clip-rule="evenodd" d="M20.1654 16.3333C20.1654 17.2538 19.4192 18 18.4987 18H3.4987C2.57822 18 1.83203 17.2538 1.83203 16.3333V7.16667C1.83203 6.24619 2.57822 5.5 3.4987 5.5H6.83203L8.4987 3H13.4987L15.1654 5.5H18.4987C19.4192 5.5 20.1654 6.24619 20.1654 7.16667V16.3333Z" stroke="#6E7191" stroke-width="2" stroke-linecap="round" stroke-linejoin="round"/>
<path fill-rule="evenodd" clip-rule="evenodd" d="M11.0013 14.6667C12.8423 14.6667 14.3346 13.1743 14.3346 11.3333C14.3346 9.49238 12.8423 8 11.0013 8C9.16035 8 7.66797 9.49238 7.66797 11.3333C7.66797 13.1743 9.16035 14.6667 11.0013 14.6667Z" stroke="#6E7191" stroke-width="2" stroke-linecap="round" stroke-linejoin="round"/>
</svg>
