<svg width="48" height="48" viewBox="0 0 48 48" fill="none" xmlns="http://www.w3.org/2000/svg">
<path d="M14.7119 23.3523C16.4588 23.3523 17.8799 21.931 17.8799 20.1843C17.8799 18.4375 16.4588 17.0162 14.7119 17.0162C12.9651 17.0162 11.544 18.4374 11.544 20.1842C11.544 21.931 12.9651 23.3523 14.7119 23.3523ZM14.7119 18.0789C15.8728 18.0789 16.8172 19.0234 16.8172 20.1842C16.8172 21.345 15.8728 22.2894 14.7119 22.2894C13.5511 22.2894 12.6067 21.345 12.6067 20.1842C12.6067 19.0234 13.5511 18.0789 14.7119 18.0789ZM30.1192 20.1842C30.1192 21.931 31.5404 23.3522 33.2872 23.3522C35.0339 23.3522 36.4551 21.931 36.4551 20.1842C36.4551 18.4374 35.034 17.0162 33.2872 17.0162C31.5403 17.0162 30.1192 18.4374 30.1192 20.1842ZM33.2872 18.0789C34.448 18.0789 35.3924 19.0234 35.3924 20.1842C35.3924 21.345 34.448 22.2894 33.2872 22.2894C32.1263 22.2894 31.1819 21.345 31.1819 20.1842C31.1819 19.0234 32.1263 18.0789 33.2872 18.0789ZM42.3276 30.6802L37.2652 24.733C36.9194 24.3268 36.4547 24.112 35.9213 24.112H30.6533C30.1199 24.112 29.6551 24.3268 29.3093 24.733L26.2059 28.3788C26.1374 28.3694 26.068 28.3628 25.9971 28.3628H22.0031C21.9977 28.3628 21.9924 28.3635 21.987 28.3636L19.2209 25.0902C18.6802 24.4503 17.9516 24.112 17.1139 24.112H12.5023C11.6646 24.112 10.9359 24.4503 10.3954 25.0902L5.67031 30.6817C5.36348 31.0448 5.21645 31.5071 5.25645 31.9832C5.29638 32.4594 5.51842 32.8907 5.88157 33.1975C6.24465 33.5044 6.70695 33.6513 7.18313 33.6115C7.65925 33.5715 8.09049 33.3494 8.3974 32.9863L10.7273 30.229L9.85761 36.4533C9.83636 36.6056 9.88206 36.7596 9.98294 36.8756C10.0839 36.9916 10.2301 37.0583 10.3838 37.0583H10.9765V42.2186C10.9765 42.5121 11.2144 42.75 11.5079 42.75H17.9158C18.2093 42.75 18.4472 42.5121 18.4472 42.2186V37.0582H19.2319C19.3856 37.0582 19.5318 36.9916 19.6328 36.8756C19.7336 36.7596 19.7794 36.6056 19.7581 36.4533L19.5566 35.0111L21.0395 33.2564V42.2186C21.0395 42.5121 21.2774 42.75 21.5708 42.75H26.4291C26.7226 42.75 26.9605 42.5121 26.9605 42.2186V33.2564L28.6891 35.3022C28.9123 35.5662 29.2146 35.7405 29.5518 35.8019V42.2186C29.5518 42.5121 29.7897 42.75 30.0832 42.75H36.4912C36.7847 42.75 37.0226 42.5121 37.0226 42.2186V29.934L39.6018 32.9862C40.2371 33.738 41.3657 33.8329 42.1176 33.1974C42.4822 32.8894 42.7045 32.4565 42.7439 31.9785C42.7829 31.5025 42.6351 31.0414 42.3276 30.6802ZM12.0394 37.0582H14.1806V41.6872H12.0394V37.0582ZM17.3845 41.6872H15.2433V37.0582H17.3845V41.6872ZM10.9947 35.9954L12.0342 28.5554C12.067 28.3211 11.9408 28.0933 11.7247 27.9967C11.5087 27.9002 11.2549 27.9582 11.1021 28.1389L7.58569 32.3003C7.46203 32.4466 7.28744 32.5361 7.09417 32.5524C6.90105 32.5688 6.71386 32.5095 6.5675 32.3857C6.42115 32.2621 6.33165 32.0876 6.3154 31.8942C6.29923 31.7009 6.35837 31.5139 6.48203 31.3675L11.2069 25.776C11.544 25.377 11.9798 25.1748 12.5021 25.1748H17.1137C17.636 25.1748 18.0718 25.3771 18.4089 25.7761L20.9625 28.798C20.9366 28.8243 20.9104 28.8502 20.8862 28.8787L20.0093 29.9088L18.5137 28.1389C18.3609 27.9581 18.1073 27.9002 17.8911 27.9967C17.6749 28.0933 17.5488 28.321 17.5816 28.5554L18.0863 32.1679L17.0482 33.3876C16.7928 33.6877 16.67 34.0706 16.7024 34.4657C16.735 34.8624 16.9196 35.2218 17.2224 35.4775C17.524 35.7323 17.9083 35.8546 18.3027 35.8212C18.401 35.8129 18.4968 35.7953 18.5894 35.7689L18.6211 35.9954H10.9947ZM19.0081 31.0851L18.8885 30.2289L19.3111 30.7291L19.0081 31.0851ZM26.8349 31.4613C26.691 31.2909 26.4559 31.2286 26.2465 31.3052C26.0369 31.3819 25.8976 31.5812 25.8976 31.8043V41.6872H24.5313V36.4054C24.5313 36.112 24.2934 35.8741 23.9999 35.8741C23.7064 35.8741 23.4685 36.112 23.4685 36.4054V41.6872H22.1022V31.8043C22.1022 31.5812 21.9629 31.3819 21.7534 31.3052C21.544 31.2285 21.3089 31.2909 21.1649 31.4613L18.499 34.6162C18.4274 34.7009 18.3262 34.7528 18.2138 34.7622C18.1018 34.7716 17.993 34.7375 17.9082 34.6658C17.823 34.5938 17.7708 34.4918 17.7616 34.3787C17.7524 34.2672 17.7864 34.1598 17.8574 34.0765L21.6955 29.5677C21.778 29.4707 21.8757 29.4256 22.003 29.4256H25.9969C26.1242 29.4256 26.2219 29.4707 26.3045 29.5677L30.1426 34.0766C30.2135 34.1599 30.2475 34.2672 30.2384 34.3787C30.2291 34.4918 30.1769 34.5938 30.0916 34.6659C30.0071 34.7375 29.8989 34.7721 29.7861 34.7623C29.6738 34.7529 29.5726 34.701 29.5009 34.6163L26.8349 31.4613ZM29.5518 31.7431L28.7847 30.8419L29.5518 29.934V31.7431ZM41.6846 31.8915C41.6687 32.0859 41.5788 32.2614 41.4316 32.3858C41.1273 32.643 40.6707 32.6046 40.4135 32.3003L36.8971 28.139C36.7531 27.9685 36.518 27.9063 36.3086 27.9829C36.0991 28.0596 35.9598 28.2588 35.9598 28.4819V41.6872H33.8186V34.5509C33.8186 34.2575 33.5807 34.0196 33.2872 34.0196C32.9938 34.0196 32.7559 34.2575 32.7559 34.5509V41.6872H30.6146V35.5954C30.6708 35.5596 30.7257 35.5212 30.7775 35.4775C31.0801 35.2218 31.2648 34.8624 31.2975 34.4657C31.33 34.0705 31.2071 33.6876 30.9517 33.3876L30.6146 32.9915V28.4819C30.6146 28.2588 30.4753 28.0595 30.2658 27.9828C30.0564 27.9062 29.8213 27.9685 29.6773 28.1389L28.0864 30.0216L27.1447 28.9153L30.1183 25.422C30.2598 25.2557 30.4348 25.1749 30.6531 25.1749H35.9212C36.1394 25.1749 36.3144 25.2556 36.4559 25.4219L41.5183 31.3691C41.6414 31.5136 41.7004 31.6991 41.6846 31.8915ZM21.4696 25.5134C21.4696 26.9087 22.6047 28.0438 24 28.0438C25.3952 28.0438 26.5303 26.9087 26.5303 25.5134C26.5303 24.1182 25.3951 22.9831 24 22.9831C22.6048 22.9831 21.4696 24.1182 21.4696 25.5134ZM25.4675 25.5134C25.4675 26.3226 24.8092 26.981 24 26.981C23.1908 26.981 22.5324 26.3226 22.5324 25.5134C22.5324 24.7042 23.1908 24.0459 24 24.0459C24.8092 24.0459 25.4675 24.7042 25.4675 25.5134ZM23.3654 19.4096C23.5463 19.5711 23.7731 19.6518 23.9999 19.6518C24.2267 19.6518 24.4536 19.5711 24.6345 19.4096C28.1272 16.291 32.0859 12.7563 32.0859 9.15197C32.086 7.00043 30.1532 5.25 27.7773 5.25C26.0883 5.25 24.983 5.84415 23.9999 7.29238C23.0168 5.84415 21.9116 5.25 20.2227 5.25C17.8468 5.25 15.9139 7.00043 15.9139 9.15197C15.9139 12.7564 19.8726 16.291 23.3654 19.4096ZM20.2227 6.31275C21.59 6.31275 22.3972 6.77285 23.2009 8.01012C23.3772 8.28165 23.6759 8.44372 24 8.44372C24.324 8.44372 24.6227 8.28165 24.7989 8.01012C25.6028 6.77293 26.4101 6.31275 27.7773 6.31275C29.5672 6.31275 31.0233 7.58639 31.0233 9.15197C31.0233 12.2576 27.3081 15.5976 24 18.5515C20.6917 15.5975 16.9766 12.2576 16.9766 9.15197C16.9766 7.58639 18.4328 6.31275 20.2227 6.31275Z" fill="#A0A3BD"/>
</svg>
