<svg width="48" height="48" viewBox="0 0 48 48" fill="none" xmlns="http://www.w3.org/2000/svg">
<path d="M42.6888 41.1652L33.9793 23.8575C33.8806 23.6619 33.6797 23.5385 33.4596 23.5385H27.7154L27.7886 23.224C30.1192 22.4331 31.7177 20.2379 31.7177 17.7692C31.7177 14.5881 29.113 12 25.9114 12C22.7097 12 20.105 14.5881 20.105 17.7692C20.105 20.2379 21.7035 22.4331 24.0342 23.224L24.1073 23.5385H16.0406C15.8205 23.5385 15.6196 23.6619 15.5209 23.8575L6.8114 41.1652C6.7214 41.344 6.73069 41.5563 6.83695 41.7265C6.94321 41.8962 7.12959 42 7.33107 42H42.1691C42.3706 42 42.557 41.8962 42.6632 41.7265C42.7689 41.5563 42.7788 41.344 42.6888 41.1652ZM23.759 38.3694L26.2516 40.8462H24.4098L19.9349 36.3998C19.7079 36.1742 19.3409 36.1742 19.1139 36.3998L14.6389 40.8462H12.7972L18.193 35.4848C18.42 35.2592 18.42 34.8946 18.193 34.669L13.6501 30.1552L14.2638 28.935L16.7908 31.4458C16.9046 31.5588 17.0532 31.6154 17.2019 31.6154C17.3505 31.6154 17.4991 31.5588 17.6124 31.4463L20.5155 28.5617C20.6247 28.4538 20.6857 28.3067 20.6857 28.1538V24.6923H21.8469V29.0688L18.5332 32.3613C18.3062 32.5869 18.3062 32.9515 18.5332 33.1771L22.0171 36.6387C22.1303 36.7512 22.2789 36.8077 22.4276 36.8077C22.5762 36.8077 22.7248 36.7512 22.8381 36.6387L27.8937 31.6154H36.5846L37.1652 32.7692H28.8145C28.6601 32.7692 28.5126 32.8298 28.404 32.9383L23.759 37.5537C23.5319 37.7792 23.5319 38.1438 23.759 38.3694ZM22.7678 40.8462H16.281L19.5244 37.6235L22.7678 40.8462ZM21.2663 17.7692C21.2663 15.2244 23.3502 13.1538 25.9114 13.1538C28.4725 13.1538 30.5564 15.2244 30.5564 17.7692C30.5564 19.8375 29.153 21.6652 27.1441 22.2144C26.9385 22.271 26.7806 22.4342 26.7324 22.6408L25.9114 26.1698L25.0903 22.6408C25.0422 22.4342 24.8842 22.2704 24.6787 22.2144C22.6697 21.6652 21.2663 19.8375 21.2663 17.7692ZM25.3452 28.8606C25.4068 29.1225 25.6408 29.3077 25.9114 29.3077C26.1819 29.3077 26.4159 29.1225 26.4775 28.8606L27.4471 24.6923H33.1008L36.004 30.4615H27.6533C27.4988 30.4615 27.3513 30.5221 27.2428 30.6306L22.4276 35.415L19.7648 32.7692L22.8381 29.7156C22.9472 29.6077 23.0082 29.4606 23.0082 29.3077V24.6923H24.3756L25.3452 28.8606ZM16.3994 24.6923H19.5244V27.915L17.2019 30.2227L14.8114 27.8475L16.3994 24.6923ZM13.1032 31.2433L16.9615 35.0769L11.1551 40.8462H8.27054L13.1032 31.2433ZM27.8937 40.8462L24.9905 37.9615L29.0549 33.9231H37.7459L40.0684 38.5385H37.2541L35.104 35.3337C35.0076 35.1894 34.8508 35.0965 34.6784 35.0798C34.503 35.0619 34.3335 35.1242 34.2104 35.246L33.1112 36.3375L32.2217 34.7902C32.0156 34.4308 31.4198 34.4308 31.2137 34.7902L29.0584 38.5385H27.6533V39.6923H40.649L41.2297 40.8462H27.8937ZM33.0398 38.5385H30.3956L31.7177 36.24L33.0398 38.5385ZM34.377 38.5385L33.7087 37.376L34.5309 36.5596L35.8588 38.5385H34.377Z" fill="#A0A3BD"/>
<path d="M28.5 17.25H30C30 15.5955 27.9818 14.25 25.5 14.25V15.25C27.1545 15.25 28.5 16.147 28.5 17.25Z" fill="#A0A3BD"/>
<path d="M27 19.5L27.5811 21C27.9827 20.415 28.3002 19.6378 28.5 18.75L27.6135 18C27.481 18.5916 27.2685 19.11 27 19.5Z" fill="#A0A3BD"/>
<path d="M8.48864 14.2031C8.29507 14.2031 8.11425 14.301 8.00645 14.4639L6.84736 16.2217C6.71755 16.4186 6.71755 16.6746 6.84736 16.8715L8.00645 18.6293C8.11425 18.7928 8.29507 18.8906 8.48864 18.8906H11.3864V24.1641C11.3864 24.4875 11.6454 24.75 11.9659 24.75H14.2841C14.6046 24.75 14.8636 24.4875 14.8636 24.1641V18.8906H18.9205C19.1343 18.8906 19.3308 18.7717 19.4316 18.5813C19.5325 18.3908 19.5209 18.1594 19.4026 17.9801L18.458 16.5469L19.4026 15.1143C19.5209 14.9344 19.5325 14.7035 19.4316 14.5131C19.3308 14.3227 19.1343 14.2031 18.9205 14.2031H14.8636V13.0312H17.7614C17.9549 13.0312 18.1358 12.9334 18.2435 12.7705L19.4026 11.0127C19.5325 10.8158 19.5325 10.5598 19.4026 10.3629L18.2435 8.60508C18.1358 8.4416 17.9549 8.34375 17.7614 8.34375H14.8636V6.58594C14.8636 6.2625 14.6046 6 14.2841 6H11.9659C11.6454 6 11.3864 6.2625 11.3864 6.58594V8.34375H7.32955C7.11569 8.34375 6.91923 8.4627 6.81839 8.65312C6.71755 8.84355 6.72914 9.075 6.84736 9.2543L7.79202 10.6875L6.84736 12.1201C6.72914 12.3 6.71755 12.5309 6.81839 12.7213C6.91923 12.9117 7.11569 13.0312 7.32955 13.0312H11.3864V14.2031H8.48864ZM13.7045 23.5781H12.5455V18.8906H13.7045V23.5781ZM17.2792 16.8721L17.8379 17.7188H8.79869L8.02616 16.5469L8.79869 15.375H17.8379L17.2792 16.2217C17.1494 16.4186 17.1494 16.6752 17.2792 16.8721ZM12.5455 7.17188H13.7045V8.34375H12.5455V7.17188ZM8.97082 10.3623L8.41214 9.51562H17.4513L18.2238 10.6875L17.4513 11.8594H8.41214L8.97082 11.0127C9.10064 10.8158 9.10064 10.5592 8.97082 10.3623ZM12.5455 13.0312H13.7045V14.2031H12.5455V13.0312Z" fill="#A0A3BD"/>
<path d="M9 15.75H9.75V16.5H9V15.75Z" fill="#A0A3BD"/>
<path d="M12 15.75H12.75V16.5H12V15.75Z" fill="#A0A3BD"/>
<path d="M15.75 9.75H17.25V11.25H15.75V9.75Z" fill="#A0A3BD"/>
<path d="M14.25 9.75H15V11.25H14.25V9.75Z" fill="#A0A3BD"/>
</svg>
