<svg width="100" height="69" viewBox="0 0 100 69" fill="none" xmlns="http://www.w3.org/2000/svg">
<g clip-path="url(#clip0_827_13947)">
<path d="M4.89941 34.3656V32.5505H18.6539L18.2693 34.3656H4.89941Z" fill="#FFD700"/>
<path d="M95.2771 32.5505L92.3632 34.3656H81.7308L81.1539 32.5505H95.2771Z" fill="#FFD700"/>
<path d="M25.3847 32.5505L24.6155 34.3656L38.8462 34.3656V32.5505L25.3847 32.5505Z" fill="#FFD700"/>
<path d="M75.0001 32.5505L75.7693 34.3656H66.5385V32.5505H75.0001Z" fill="#FFD700"/>
<path d="M4.89941 37.5558V35.7407H18.077L17.6924 37.5558H4.89941Z" fill="#FFD700"/>
<path d="M89.2395 35.7407L86.5202 37.5558L82.3078 37.5668L82.1155 35.7407H89.2395Z" fill="#FFD700"/>
<path d="M24.0385 35.7407L23.4616 37.5558H38.8462V35.7407H24.0385Z" fill="#FFD700"/>
<path d="M47.5001 35.7407V37.5558H52.8847V35.7407H47.5001Z" fill="#FFD700"/>
<path d="M76.1539 35.7407L76.7308 37.5558H60.9616V35.7407H76.1539Z" fill="#FFD700"/>
<path fill-rule="evenodd" clip-rule="evenodd" d="M18.469 42.4458C18.407 47.455 18.6621 51.5645 19.9042 56.374L21.0835 60.3151H21.179C20.9057 59.5298 20.6833 57.1181 20.6213 56.132C20.5203 54.5249 20.4531 53.0608 20.4531 51.4243C20.4529 43.2316 22.391 34.6163 26.2054 27.3255C27.3442 25.1487 29.3287 22.0983 30.9921 20.2706L31.7616 19.3891C32.032 19.0601 32.3224 18.8185 32.6202 18.5224C33.7973 17.352 33.8919 17.2091 35.2831 16.0845C39.2877 12.8472 44.4904 10.6191 50.1214 10.6297C55.6862 10.6403 60.9665 12.9004 64.9514 16.1677C65.6245 16.7195 66.1689 17.1896 66.7562 17.7384L69.2359 20.3588C69.5013 20.6827 69.7227 20.9433 69.9761 21.2695C72.5223 24.5468 74.5603 28.0627 76.0875 32.0153C77.1774 34.8361 77.9702 37.6754 78.5871 40.6259C79.2651 44.4018 79.7083 47.4039 79.708 51.3495C79.708 53.2272 79.5106 58.8346 78.9634 60.3151H79.0518L80.2398 56.348C80.5887 54.9769 80.8817 53.5632 81.107 52.1333C81.5978 49.0174 81.8208 45.6727 81.6678 42.4399C81.4485 37.758 80.4071 32.0556 78.6698 27.7377C78.3084 26.8397 77.9529 25.8495 77.5202 24.9906C75.6695 21.3176 74.1032 18.4579 71.3568 15.4157C70.0842 14.0061 68.8971 12.7889 67.3538 11.5424C66.0833 10.5163 64.3312 9.24445 62.633 8.38078C58.826 6.44467 55.0573 5.14764 50.0461 5.14722C45.3061 5.14679 40.9054 6.4931 37.481 8.4034C33.8061 10.4534 30.9925 12.817 28.759 15.4392C21.8641 23.5339 19.2543 32.1102 18.469 42.4458Z" fill="#2F80ED"/>
<path d="M23.3794 55.7642C23.3794 54.4143 23.7579 53.3629 24.5169 52.6118C25.2759 51.8589 26.3319 51.4834 27.6869 51.4834C29.0748 51.4834 30.1444 51.8531 30.8956 52.5907C31.6469 53.3301 32.0215 54.3662 32.0215 55.6968C32.0215 56.6635 31.8584 57.455 31.5304 58.0731C31.2023 58.6912 30.7267 59.1727 30.1075 59.5174C29.4863 59.862 28.7137 60.0334 27.7878 60.0334C26.8482 60.0334 26.0699 59.8852 25.4526 59.5886C24.8372 59.2901 24.3364 58.8202 23.954 58.1771C23.5716 57.5358 23.3794 56.7309 23.3794 55.7642ZM25.9534 55.77C25.9534 56.6038 26.1106 57.2046 26.4231 57.5685C26.7376 57.9325 27.1647 58.1154 27.7043 58.1154C28.2576 58.1154 28.6885 57.9364 28.9913 57.5801C29.2961 57.2219 29.4475 56.5826 29.4475 55.6563C29.4475 54.8784 29.2884 54.3103 28.9719 53.9521C28.6535 53.592 28.2246 53.4129 27.681 53.4129C27.1608 53.4129 26.7415 53.5959 26.427 53.9598C26.1106 54.3238 25.9534 54.9285 25.9534 55.77ZM34.2076 51.622H36.6128L39.74 56.1898V51.622H42.1743V59.8948H39.74L36.6302 55.3521V59.8948H34.2076V51.622ZM44.6632 51.622H47.2372V57.8613H51.2671V59.8948H44.6632V51.622ZM53.3135 51.622H55.8991V59.8948H53.3135V51.622ZM58.5414 51.622H60.9466L64.0738 56.1898V51.622H66.508V59.8948H64.0738L60.964 55.3521V59.8948H58.5414V51.622ZM68.997 51.622H75.8921V53.3898H71.5826V54.707H75.5776V56.3939H71.5826V58.023H76.0201V59.8948H68.997V51.622Z" fill="#FFD700"/>
<path fill-rule="evenodd" clip-rule="evenodd" d="M40.2515 40.6561H46.4758V27.4097H51.9552V22.1851H34.772V27.4097H40.2515V40.6561Z" fill="#2F80ED"/>
<path fill-rule="evenodd" clip-rule="evenodd" d="M53.7002 47.6043H59.9245V34.358H65.404V29.1333H48.2207V34.358H53.7002V47.6043Z" fill="#2F80ED"/>
</g>
<defs>
<clipPath id="clip0_827_13947">
<rect width="100" height="69" fill="white"/>
</clipPath>
</defs>
</svg>
