<svg width="152" height="105" viewBox="0 0 152 105" fill="none" xmlns="http://www.w3.org/2000/svg">
<g clip-path="url(#clip0_833_8116)">
<path d="M7.44678 52.2953V49.5332H28.3536L27.769 52.2953H7.44678Z" fill="white"/>
<path d="M144.821 49.5332L140.392 52.2953H124.231L123.354 49.5332H144.821Z" fill="white"/>
<path d="M38.5844 49.5332L37.4152 52.2953L59.0459 52.2953V49.5332L38.5844 49.5332Z" fill="white"/>
<path d="M114 49.5332L115.169 52.2953H101.138V49.5332H114Z" fill="white"/>
<path d="M7.44727 57.1501V54.3879H27.4772L26.8926 57.1501H7.44727Z" fill="white"/>
<path d="M135.644 54.3879L131.511 57.1501L125.108 57.1667L124.816 54.3879H135.644Z" fill="white"/>
<path d="M36.5387 54.3879L35.6618 57.1501H59.0464V54.3879H36.5387Z" fill="white"/>
<path d="M72.2003 54.3879V57.1501H80.3849V54.3879H72.2003Z" fill="white"/>
<path d="M115.754 54.3879L116.631 57.1501H92.6618V54.3879H115.754Z" fill="white"/>
<path fill-rule="evenodd" clip-rule="evenodd" d="M28.0731 64.5914C27.9788 72.2142 28.3666 78.4678 30.2546 85.7865L32.0471 91.784H32.1923C31.7769 90.5889 31.4388 86.919 31.3445 85.4183C31.191 82.9727 31.0889 80.7447 31.0888 78.2543C31.0886 65.7872 34.0345 52.677 39.8323 41.5823C41.5634 38.2698 44.5797 33.6279 47.1082 30.8466L48.2778 29.5052C48.6889 29.0046 49.1302 28.6369 49.5828 28.1863C51.372 26.4053 51.5159 26.1877 53.6304 24.4764C59.7176 19.5501 67.6255 16.1596 76.1847 16.1757C84.6432 16.1918 92.6693 19.631 98.7264 24.603C99.7494 25.4428 100.577 26.1581 101.47 26.9932L105.239 30.9808C105.642 31.4737 105.979 31.8702 106.364 32.3667C110.234 37.3539 113.332 42.7042 115.653 48.719C117.31 53.0115 118.515 57.3322 119.453 61.822C120.483 67.5679 121.157 72.1364 121.156 78.1406C121.156 80.9979 120.856 89.531 120.024 91.784H120.159L121.965 85.7469C122.495 83.6605 122.94 81.5092 123.283 79.3333C124.029 74.5917 124.368 69.502 124.135 64.5825C123.802 57.4578 122.219 48.7803 119.578 42.2095C119.029 40.843 118.489 39.3362 117.831 38.0293C115.018 32.4399 112.637 28.0882 108.463 23.4588C106.528 21.3136 104.724 19.4614 102.378 17.5646C100.447 16.0031 97.7836 14.0677 95.2023 12.7534C89.4157 9.80715 83.6872 7.83341 76.0702 7.83276C68.8654 7.83212 62.1764 9.88085 56.9712 12.7878C51.3854 15.9074 47.1087 19.5042 43.7138 23.4945C33.2336 35.8126 29.2667 48.8633 28.0731 64.5914Z" fill="white"/>
<path d="M35.5366 84.8588C35.5366 82.8046 36.112 81.2046 37.2657 80.0617C38.4194 78.916 40.0245 78.3445 42.084 78.3445C44.1937 78.3445 45.8194 78.9071 46.9613 80.0295C48.1032 81.1547 48.6726 82.7313 48.6726 84.7562C48.6726 86.2272 48.4248 87.4317 47.9261 88.3723C47.4275 89.3129 46.7046 90.0455 45.7634 90.5701C44.8192 91.0946 43.6448 91.3554 42.2374 91.3554C40.8093 91.3554 39.6261 91.1298 38.6879 90.6785C37.7525 90.2242 36.9913 89.5093 36.41 88.5305C35.8287 87.5547 35.5366 86.3298 35.5366 84.8588ZM39.4491 84.8675C39.4491 86.1364 39.6881 87.0507 40.1631 87.6045C40.6411 88.1583 41.2902 88.4367 42.1105 88.4367C42.9515 88.4367 43.6065 88.1642 44.0668 87.6221C44.53 87.077 44.7601 86.1042 44.7601 84.6946C44.7601 83.5108 44.5182 82.6463 44.0372 82.1012C43.5533 81.5533 42.9013 81.2807 42.0751 81.2807C41.2843 81.2807 40.647 81.5591 40.169 82.1129C39.6881 82.6668 39.4491 83.587 39.4491 84.8675ZM51.9956 78.5555H55.6514L60.4048 85.5063V78.5555H64.1048V91.1444H60.4048L55.6779 84.2317V91.1444H51.9956V78.5555ZM67.888 78.5555H71.8005V88.05H77.9259V91.1444H67.888V78.5555ZM81.0364 78.5555H84.9666V91.1444H81.0364V78.5555ZM88.9829 78.5555H92.6387L97.3921 85.5063V78.5555H101.092V91.1444H97.3921L92.6653 84.2317V91.1444H88.9829V78.5555ZM104.875 78.5555H115.356V81.2456H108.806V83.2499H114.878V85.817H108.806V88.2961H115.551V91.1444H104.875V78.5555Z" fill="white"/>
<path fill-rule="evenodd" clip-rule="evenodd" d="M61.1823 61.8681H70.6433V41.7106H78.9721V33.76H52.8535V41.7106H61.1823V61.8681Z" fill="white"/>
<path fill-rule="evenodd" clip-rule="evenodd" d="M81.6242 72.4413H91.0852V52.2839H99.414V44.3333H73.2954V52.2839H81.6242V72.4413Z" fill="white"/>
</g>
<defs>
<clipPath id="clip0_833_8116">
<rect width="152" height="105" fill="white"/>
</clipPath>
</defs>
</svg>
