<svg width="24" height="24" viewBox="0 0 24 24" fill="none" xmlns="http://www.w3.org/2000/svg">
<path fill-rule="evenodd" clip-rule="evenodd" d="M21.8881 16.9201V19.9201C21.8904 20.4832 21.6552 21.0213 21.2402 21.402C20.8252 21.7827 20.269 21.9708 19.7081 21.9201C16.631 21.5857 13.6751 20.5342 11.0781 18.8501C8.66195 17.3148 6.61346 15.2663 5.07812 12.8501C3.3881 10.2413 2.33637 7.27109 2.00812 4.1801C1.9576 3.62097 2.1444 3.06635 2.52289 2.65172C2.90138 2.23709 3.43672 2.00063 3.99812 2.0001H6.99812C8.00199 1.99022 8.85762 2.72607 8.99812 3.7201C9.12475 4.68016 9.35957 5.62283 9.69812 6.5301C9.97286 7.26097 9.79714 8.0849 9.24812 8.6401L7.97812 9.9101C9.40168 12.4136 11.4746 14.4865 13.9781 15.9101L15.2481 14.6401C15.8033 14.0911 16.6272 13.9154 17.3581 14.1901C18.2654 14.5286 19.2081 14.7635 20.1681 14.8901C21.1737 15.032 21.9133 15.9049 21.8881 16.9201Z" stroke="#A0A3BD" stroke-width="2" stroke-linecap="round" stroke-linejoin="round"/>
</svg>
