<svg width="23" height="22" viewBox="0 0 23 22" fill="none" xmlns="http://www.w3.org/2000/svg">
<path d="M12.943 8.32727L11.9468 8.41443C11.995 8.96461 12.48 9.3716 13.0302 9.32347L12.943 8.32727ZM12.6525 5.00662L13.6487 4.91947L12.6525 5.00662ZM9.94412 2.73403L9.85696 1.73783C9.46328 1.77228 9.1268 2.03534 8.99839 2.40908L9.94412 2.73403ZM7.27714 10.496L6.3314 10.1711C6.28594 10.3034 6.26875 10.4438 6.28094 10.5832L7.27714 10.496ZM8.07606 19.6278L7.07987 19.7149C7.10298 19.9792 7.23011 20.2234 7.43328 20.3938C7.63644 20.5643 7.89901 20.6471 8.16322 20.624L8.07606 19.6278ZM17.4403 18.8085L17.3644 17.8113L17.3531 17.8123L17.4403 18.8085ZM18.9771 17.252L17.9792 17.1872L17.9791 17.1888L18.9771 17.252ZM19.4691 9.6803L20.467 9.74514L20.4671 9.74363L19.4691 9.6803ZM17.6417 7.91619L17.7289 8.91245L17.7402 8.91133L17.6417 7.91619ZM8.07606 19.6278L8.16322 20.624C8.42743 20.6009 8.67163 20.4737 8.84211 20.2706C9.01259 20.0674 9.09537 19.8048 9.07226 19.5406L8.07606 19.6278ZM5.58558 19.8457L5.67273 20.8419L5.58558 19.8457ZM3.77999 18.3306L2.7838 18.4178L3.77999 18.3306ZM3.27158 12.5195L4.26778 12.4323L3.27158 12.5195ZM4.78665 10.7139L4.69949 9.7177L4.78665 10.7139ZM7.27714 10.496L8.27333 10.4089C8.2252 9.85867 7.74016 9.45168 7.18998 9.49981L7.27714 10.496ZM13.9392 8.24012L13.6487 4.91947L11.6563 5.09378L11.9468 8.41443L13.9392 8.24012ZM13.6487 4.91947C13.4802 2.99383 11.7826 1.56936 9.85696 1.73783L10.0313 3.73022C10.8565 3.65802 11.5841 4.26851 11.6563 5.09378L13.6487 4.91947ZM8.99839 2.40908L6.3314 10.1711L8.22287 10.821L10.8898 3.05898L8.99839 2.40908ZM6.28094 10.5832L7.07987 19.7149L9.07226 19.5406L8.27333 10.4089L6.28094 10.5832ZM8.16322 20.624L17.5274 19.8047L17.3531 17.8123L7.98891 18.6316L8.16322 20.624ZM17.5162 19.8056C18.8421 19.7047 19.8911 18.6423 19.9751 17.3152L17.9791 17.1888C17.9581 17.5206 17.6959 17.7862 17.3644 17.8114L17.5162 19.8056ZM19.975 17.3168L20.467 9.74514L18.4712 9.61547L17.9793 17.1872L19.975 17.3168ZM20.4671 9.74363C20.5166 8.96281 20.2208 8.19963 19.6579 7.65623L18.2688 9.09513C18.4095 9.23098 18.4835 9.42177 18.4711 9.61698L20.4671 9.74363ZM19.6579 7.65623C19.095 7.11283 18.3219 6.84403 17.5433 6.92104L17.7402 8.91133C17.9348 8.89208 18.1281 8.95928 18.2688 9.09513L19.6579 7.65623ZM17.5546 6.91999L12.8559 7.33108L13.0302 9.32347L17.7289 8.91238L17.5546 6.91999ZM7.98891 18.6316L5.49842 18.8495L5.67273 20.8419L8.16322 20.624L7.98891 18.6316ZM5.49842 18.8495C5.13163 18.8816 4.80828 18.6102 4.77619 18.2435L2.7838 18.4178C2.91216 19.8849 4.20558 20.9702 5.67273 20.8419L5.49842 18.8495ZM4.77619 18.2435L4.26778 12.4323L2.27539 12.6066L2.7838 18.4178L4.77619 18.2435ZM4.26778 12.4323C4.23569 12.0655 4.50702 11.7422 4.8738 11.7101L4.69949 9.7177C3.23234 9.84606 2.14703 11.1395 2.27539 12.6066L4.26778 12.4323ZM4.8738 11.7101L7.36429 11.4922L7.18998 9.49981L4.69949 9.7177L4.8738 11.7101ZM6.28094 10.5832L7.07987 19.7149L9.07226 19.5406L8.27333 10.4089L6.28094 10.5832Z" fill="#14142B"/>
</svg>
